<svg width="147" height="40" viewBox="0 0 147 40" fill="none" xmlns="http://www.w3.org/2000/svg">
<path d="M59.8415 0.0378645C52.2815 -0.530382 45.9091 5.37064 45.6484 12.8016V36.4639C45.6484 38.0521 46.9229 39.3343 48.5015 39.3343C50.1381 39.3343 51.456 37.9938 51.456 36.3619V24.3122C53.5705 25.7547 56.105 26.5852 58.8422 26.5852C66.6195 26.5852 72.8615 19.7808 71.9636 11.7816C71.254 5.47263 66.0981 0.504118 59.8415 0.0378645ZM59.1898 20.7133C54.9609 20.9173 51.4705 17.5369 51.4415 13.3407V13.2532C51.4705 9.17352 54.7726 5.86604 58.8278 5.86604C62.8829 5.86604 66.4022 9.39208 66.214 13.6612C66.0402 17.435 62.9553 20.5385 59.1898 20.7279V20.7133Z" fill="#56BDB2"/>
<path d="M115.037 27.6187C113.386 27.6187 112.039 26.2637 112.039 24.6027V13.6457C112.039 13.5583 112.039 13.4709 112.039 13.3834C112.445 7.55527 116.485 2.7616 121.844 1.18799C123.741 0.634317 125.638 2.10593 125.638 4.10208C125.638 5.44256 124.769 6.62276 123.48 7.00159C120.511 7.89039 118.267 10.5422 118.035 13.7914V24.6027C118.035 26.2637 116.688 27.6187 115.037 27.6187Z" fill="#56BDB2"/>
<path d="M138.457 3.56439C138.457 4.97773 139.601 6.12879 141.006 6.12879H143.497C144.902 6.12879 146.046 7.27985 146.046 8.69318V9.61112C146.046 11.0245 144.902 12.1755 143.497 12.1755H141.006C139.601 12.1755 138.457 13.3266 138.457 14.7399V14.8565C138.689 18.1785 141.035 20.9032 144.134 21.7046C145.249 21.996 146.06 22.9722 146.06 24.1378V25.1286C146.06 26.7605 144.554 27.999 142.961 27.6347C137.255 26.2943 132.881 21.3403 132.461 15.2499C132.461 15.177 132.461 15.1042 132.461 15.0313V3.56439C132.461 2.15106 133.591 1 134.995 1H135.908C137.313 1 138.457 2.15106 138.457 3.56439Z" fill="#56BDB2"/>
<path d="M36.2793 1.72656C34.6717 1.72656 33.3683 2.99419 33.3683 4.55322V16.2533C33.2814 19.4442 30.24 21.9649 26.8365 21.3384C24.2152 20.8575 22.3759 18.5263 22.3759 15.9327V4.43666C22.3759 2.93591 21.1159 1.72656 19.5662 1.72656C17.9586 1.72656 16.6697 2.97962 16.6697 4.53865V16.2533C16.5828 19.4442 13.5414 21.9649 10.1379 21.3384C7.51655 20.8575 5.69172 18.5263 5.69172 15.9327V4.50951C5.69172 2.96505 4.40276 1.72656 2.82414 1.72656C1.26 1.72656 0 2.95048 0 4.4658V15.8162C0 21.2364 3.98276 26.0155 9.50069 26.8314C13.4255 27.4142 17.0897 25.9135 19.4938 23.3199C19.4938 23.3199 19.5228 23.3199 19.5372 23.3199C21.5938 25.5492 24.5628 26.948 27.8793 26.948C33.9186 26.948 38.9296 22.1834 39.0745 16.3261V4.42209C39.0745 2.93591 37.829 1.72656 36.2938 1.72656H36.2793Z" fill="#56BDB2"/>
<path d="M80.6971 8.60156C80.1467 10.0586 79.8281 11.6322 79.8281 13.2787C79.8281 20.5347 85.6936 26.4358 92.9061 26.4358C96.6281 26.4358 99.9881 24.8476 102.378 22.3269C100.017 22.4872 95.1509 20.5202 90.053 17.1835C85.4474 14.1675 81.9281 10.86 80.6971 8.60156Z" fill="#56BDB2"/>
<path d="M105 18.2797C105.637 16.7353 105.985 15.0597 105.985 13.2821C105.985 6.02602 100.119 0.125 92.9066 0.125C89.3583 0.125 86.1286 1.56747 83.768 3.88417C81.248 3.02451 79.4521 2.89338 78.9307 3.69475C78.4962 4.36499 79.0031 5.57434 80.2197 7.08966C80.4369 7.3665 80.6831 7.65791 80.9438 7.94932C83.0149 10.2514 86.4038 13.0635 90.5024 15.7591C95.2817 18.8917 99.8583 21.0773 102.842 21.8058C103.059 21.8641 103.291 21.9078 103.493 21.9515C104.855 22.1992 105.811 22.0972 106.158 21.5435C106.578 20.9024 106.115 19.7368 104.985 18.2797H105Z" fill="#56BDB2"/>
</svg>
